<svg width="69" height="98" viewBox="0 0 69 98" fill="none" xmlns="http://www.w3.org/2000/svg">
<path d="M18.9562 63.825C22.8562 63.825 26.6312 62.275 30.2812 59.175C31.6312 58.025 32.7312 56.975 33.5812 56.025C34.4312 55.025 35.0812 54.525 35.5312 54.525C36.2312 54.525 36.5812 55.225 36.5812 56.625C36.5812 58.025 36.2062 59.6 35.4562 61.35C34.7062 63.05 33.4562 64.725 31.7062 66.375C27.4062 70.425 21.5062 72.45 14.0062 72.45C8.05617 72.45 4.00617 70.3 1.85617 66C1.10617 64.5 0.731171 62.35 0.731171 59.55C0.731171 56.75 1.28117 53.85 2.38117 50.85C3.48117 47.8 4.93117 45.175 6.73117 42.975C8.58117 40.775 10.7062 39.075 13.1062 37.875C15.5062 36.625 18.0562 36 20.7562 36C23.5062 36 25.6062 36.675 27.0562 38.025C28.5562 39.375 29.3062 41.125 29.3062 43.275C29.3062 45.425 28.7562 47.2 27.6562 48.6C26.6062 49.95 25.2312 51.1 23.5312 52.05C21.8312 52.95 19.9312 53.775 17.8312 54.525C15.7812 55.225 13.7562 56.025 11.7562 56.925V58.8C11.8062 60.6 12.5562 61.875 14.0062 62.625C15.4562 63.375 17.1062 63.775 18.9562 63.825ZM17.6812 42.675C15.0812 42.675 13.2812 45.7 12.2812 51.75C13.3312 51.05 14.3062 50.425 15.2062 49.875C16.1562 49.325 16.9812 48.8 17.6812 48.3C19.1812 47.2 19.9562 45.95 20.0062 44.55C20.0062 43.3 19.2312 42.675 17.6812 42.675ZM34.3913 75.875C34.3913 79.25 35.058 82.5 36.3913 85.625C38.6413 90.875 41.9747 93.5 46.3913 93.5C49.8497 93.5 52.7455 92.6042 55.0788 90.8125C57.4538 89.0625 60.2455 86.1667 63.4538 82.125C64.4538 80.8333 65.4955 80.3958 66.5788 80.8125C67.6622 81.1875 68.2038 82.0417 68.2038 83.375C68.2038 87.2917 65.8705 90.6458 61.2038 93.4375C56.5788 96.2292 52.1622 97.625 47.9538 97.625C35.4955 97.625 29.2663 90.25 29.2663 75.5C29.2663 69.0417 30.4747 62.3125 32.8913 55.3125L33.5163 53.5C41.308 31.1667 47.3497 16.1875 51.6413 8.5625C54.6413 3.0625 57.8913 0.3125 61.3913 0.3125C66.3497 0.354167 68.8705 2.14583 68.9538 5.6875C68.9538 7.89583 67.4747 11.3958 64.5163 16.1875C61.558 20.9375 55.6205 29.25 46.7038 41.125C44.4538 43.6667 42.4538 46.5417 40.7038 49.75C36.4955 57.6667 34.3913 66.375 34.3913 75.875ZM45.8913 34.125C46.5163 34.0833 49.3913 29.5833 54.5163 20.625C59.683 11.625 62.2455 6.97917 62.2038 6.6875C62.1622 6.35417 61.9955 6.1875 61.7038 6.1875C61.4122 6.14583 61.2247 6.16667 61.1413 6.25C59.7663 7.08333 56.8497 11.5208 52.3913 19.5625C47.9747 27.5625 45.7663 32.3125 45.7663 33.8125C45.7663 33.9375 45.808 34.0417 45.8913 34.125Z" fill="black"/>
</svg>
