<svg width="50" height="74" viewBox="0 0 50 74" fill="none" xmlns="http://www.w3.org/2000/svg">
<path d="M12.624 48.768C15.12 48.768 17.536 47.776 19.872 45.792C20.736 45.056 21.44 44.384 21.984 43.776C22.528 43.136 22.944 42.816 23.232 42.816C23.68 42.816 23.904 43.264 23.904 44.16C23.904 45.056 23.664 46.064 23.184 47.184C22.704 48.272 21.904 49.344 20.784 50.4C18.032 52.992 14.256 54.288 9.456 54.288C5.648 54.288 3.056 52.912 1.68 50.16C1.2 49.2 0.96 47.824 0.96 46.032C0.96 44.24 1.312 42.384 2.016 40.464C2.72 38.512 3.648 36.832 4.8 35.424C5.984 34.016 7.344 32.928 8.88 32.16C10.416 31.36 12.048 30.96 13.776 30.96C15.536 30.96 16.88 31.392 17.808 32.256C18.768 33.12 19.248 34.24 19.248 35.616C19.248 36.992 18.896 38.128 18.192 39.024C17.52 39.888 16.64 40.624 15.552 41.232C14.464 41.808 13.248 42.336 11.904 42.816C10.592 43.264 9.296 43.776 8.016 44.352V45.552C8.048 46.704 8.528 47.52 9.456 48C10.384 48.48 11.44 48.736 12.624 48.768ZM11.808 35.232C10.144 35.232 8.992 37.168 8.352 41.04C9.024 40.592 9.648 40.192 10.224 39.84C10.832 39.488 11.36 39.152 11.808 38.832C12.768 38.128 13.264 37.328 13.296 36.432C13.296 35.632 12.8 35.232 11.808 35.232ZM24.0469 56.9062C24.0469 59.4375 24.5469 61.875 25.5469 64.2188C27.2344 68.1562 29.7344 70.125 33.0469 70.125C35.6406 70.125 37.8125 69.4531 39.5625 68.1094C41.3438 66.7969 43.4375 64.625 45.8438 61.5938C46.5938 60.625 47.375 60.2969 48.1875 60.6094C49 60.8906 49.4062 61.5312 49.4062 62.5312C49.4062 65.4688 47.6562 67.9844 44.1562 70.0781C40.6875 72.1719 37.375 73.2188 34.2188 73.2188C24.875 73.2188 20.2031 67.6875 20.2031 56.625C20.2031 51.7812 21.1094 46.7344 22.9219 41.4844L23.3906 40.125C29.2344 23.375 33.7656 12.1406 36.9844 6.42188C39.2344 2.29688 41.6719 0.234375 44.2969 0.234375C48.0156 0.265625 49.9062 1.60938 49.9688 4.26562C49.9688 5.92188 48.8594 8.54688 46.6406 12.1406C44.4219 15.7031 39.9688 21.9375 33.2812 30.8438C31.5938 32.75 30.0938 34.9062 28.7812 37.3125C25.625 43.25 24.0469 49.7812 24.0469 56.9062ZM32.6719 25.5938C33.1406 25.5625 35.2969 22.1875 39.1406 15.4688C43.0156 8.71875 44.9375 5.23438 44.9062 5.01562C44.875 4.76562 44.75 4.64062 44.5312 4.64062C44.3125 4.60938 44.1719 4.625 44.1094 4.6875C43.0781 5.3125 40.8906 8.64062 37.5469 14.6719C34.2344 20.6719 32.5781 24.2344 32.5781 25.3594C32.5781 25.4531 32.6094 25.5312 32.6719 25.5938Z" fill="white"/>
</svg>
